<svg width="167" height="61" viewBox="0 0 167 61" fill="none" xmlns="http://www.w3.org/2000/svg">
<path d="M33.27 41.54C32.29 41.54 31.53 41.35 30.99 40.97C30.47 40.59 30.21 40.08 30.21 39.44C30.21 38.88 30.4 38.45 30.78 38.15C31.18 37.85 31.64 37.7 32.16 37.7C32.68 37.7 33.14 37.82 33.54 38.06C33.94 38.28 34.31 38.67 34.65 39.23L35.19 40.16C35.29 40.3 35.41 40.37 35.55 40.37C35.71 40.37 35.82 40.28 35.88 40.1C36 39.7 36.08 39.12 36.12 38.36C36.18 37.58 36.21 36.64 36.21 35.54C36.21 34.28 36.18 32.66 36.12 30.68C36.06 28.7 36 26.26 35.94 23.36C35.94 22.5 35.62 21.96 34.98 21.74L34.29 21.5V21.2H42.15V21.5L41.49 21.74C41.13 21.88 40.88 22.07 40.74 22.31C40.62 22.53 40.56 22.85 40.56 23.27V29.21C40.56 31.17 40.47 32.79 40.29 34.07C40.11 35.35 39.82 36.46 39.42 37.4C38.92 38.74 38.1 39.77 36.96 40.49C35.84 41.19 34.61 41.54 33.27 41.54ZM46.6109 41.45C45.4509 41.45 44.4709 41.12 43.6709 40.46C42.8909 39.8 42.5009 38.85 42.5009 37.61C42.5009 36.67 42.9809 35.81 43.9409 35.03C44.9009 34.23 46.4109 33.63 48.4709 33.23C48.7909 33.17 49.1509 33.11 49.5509 33.05C49.9509 32.97 50.3709 32.89 50.8109 32.81V30.44C50.8109 29.08 50.6409 28.13 50.3009 27.59C49.9809 27.03 49.4709 26.75 48.7709 26.75C48.2909 26.75 47.9109 26.91 47.6309 27.23C47.3509 27.53 47.1709 28.06 47.0909 28.82L47.0309 29.15C46.9909 30.01 46.7809 30.64 46.4009 31.04C46.0209 31.44 45.5509 31.64 44.9909 31.64C44.4709 31.64 44.0409 31.48 43.7009 31.16C43.3609 30.84 43.1909 30.41 43.1909 29.87C43.1909 29.05 43.4709 28.36 44.0309 27.8C44.6109 27.24 45.3709 26.82 46.3109 26.54C47.2509 26.26 48.2709 26.12 49.3709 26.12C51.1509 26.12 52.5209 26.56 53.4809 27.44C54.4609 28.3 54.9509 29.71 54.9509 31.67V38.3C54.9509 39.2 55.3709 39.65 56.2109 39.65H56.8709L57.1409 39.89C56.7609 40.37 56.3409 40.74 55.8809 41C55.4409 41.26 54.8109 41.39 53.9909 41.39C53.1109 41.39 52.4109 41.19 51.8909 40.79C51.3909 40.37 51.0609 39.82 50.9009 39.14C50.3009 39.78 49.6809 40.33 49.0409 40.79C48.4209 41.23 47.6109 41.45 46.6109 41.45ZM48.4409 39.62C48.8409 39.62 49.2109 39.53 49.5509 39.35C49.9109 39.15 50.3309 38.85 50.8109 38.45V33.41C50.6109 33.45 50.4109 33.49 50.2109 33.53C50.0109 33.57 49.7809 33.61 49.5209 33.65C48.6009 33.89 47.8609 34.3 47.3009 34.88C46.7609 35.44 46.4909 36.2 46.4909 37.16C46.4909 37.98 46.6809 38.6 47.0609 39.02C47.4409 39.42 47.9009 39.62 48.4409 39.62ZM60.0495 48.2C59.2495 48.2 58.6095 48 58.1295 47.6C57.6695 47.2 57.4395 46.69 57.4395 46.07C57.4395 45.51 57.6395 45.06 58.0395 44.72C58.4395 44.38 58.8895 44.21 59.3895 44.21C59.8895 44.21 60.3095 44.31 60.6495 44.51C60.9895 44.73 61.2895 45.04 61.5495 45.44L61.7595 45.68C62.1995 46.28 62.6395 46.27 63.0795 45.65C63.2595 45.35 63.4595 44.95 63.6795 44.45C63.9195 43.97 64.1895 43.32 64.4895 42.5L58.6695 28.58C58.5295 28.2 58.3795 27.9 58.2195 27.68C58.0595 27.44 57.7995 27.24 57.4395 27.08L56.8995 26.87V26.57H64.3695V26.84L63.7695 27.08C63.3295 27.22 63.0995 27.45 63.0795 27.77C63.0795 28.07 63.1595 28.45 63.3195 28.91L66.4395 37.01L69.4095 28.82C69.5695 28.36 69.6295 27.98 69.5895 27.68C69.5495 27.36 69.2995 27.14 68.8395 27.02L68.2095 26.87V26.57H72.3795V26.87L71.7195 27.08C71.2595 27.22 70.9395 27.42 70.7595 27.68C70.5795 27.94 70.4095 28.3 70.2495 28.76L65.4195 41.93C64.6395 44.03 63.8595 45.6 63.0795 46.64C62.2995 47.68 61.2895 48.2 60.0495 48.2ZM80.1124 26.12C81.4124 26.12 82.5224 26.39 83.4424 26.93C84.3624 27.45 85.0624 28.17 85.5424 29.09C86.0424 29.99 86.2924 31.02 86.2924 32.18C86.2924 32.4 86.2824 32.63 86.2624 32.87C86.2424 33.09 86.2024 33.29 86.1424 33.47H77.2024C77.2224 35.63 77.6024 37.19 78.3424 38.15C79.1024 39.09 80.2224 39.56 81.7024 39.56C82.7024 39.56 83.5124 39.4 84.1324 39.08C84.7524 38.76 85.3324 38.29 85.8724 37.67L86.1724 37.94C85.5524 39.04 84.7224 39.9 83.6824 40.52C82.6624 41.14 81.4324 41.45 79.9924 41.45C78.5724 41.45 77.3124 41.15 76.2124 40.55C75.1124 39.93 74.2524 39.05 73.6324 37.91C73.0124 36.77 72.7024 35.41 72.7024 33.83C72.7024 32.19 73.0624 30.8 73.7824 29.66C74.5024 28.5 75.4224 27.62 76.5424 27.02C77.6824 26.42 78.8724 26.12 80.1124 26.12ZM80.0224 26.72C79.4424 26.72 78.9424 26.9 78.5224 27.26C78.1224 27.6 77.8024 28.22 77.5624 29.12C77.3424 30 77.2224 31.25 77.2024 32.87H82.3324C82.5324 30.69 82.4524 29.12 82.0924 28.16C81.7324 27.2 81.0424 26.72 80.0224 26.72ZM95.3775 41.45C93.8575 41.45 92.5375 41.14 91.4175 40.52C90.2975 39.88 89.4275 38.98 88.8075 37.82C88.2075 36.66 87.9075 35.3 87.9075 33.74C87.9075 32.18 88.2275 30.83 88.8675 29.69C89.5275 28.55 90.4175 27.67 91.5375 27.05C92.6775 26.43 93.9575 26.12 95.3775 26.12C96.7975 26.12 98.0675 26.43 99.1875 27.05C100.308 27.65 101.188 28.52 101.828 29.66C102.488 30.8 102.818 32.16 102.818 33.74C102.818 35.32 102.508 36.69 101.888 37.85C101.288 38.99 100.428 39.88 99.3075 40.52C98.2075 41.14 96.8975 41.45 95.3775 41.45ZM95.3775 40.85C96.0775 40.85 96.6375 40.65 97.0575 40.25C97.4775 39.85 97.7775 39.14 97.9575 38.12C98.1575 37.1 98.2575 35.66 98.2575 33.8C98.2575 31.92 98.1575 30.47 97.9575 29.45C97.7775 28.43 97.4775 27.72 97.0575 27.32C96.6375 26.92 96.0775 26.72 95.3775 26.72C94.6775 26.72 94.1075 26.92 93.6675 27.32C93.2475 27.72 92.9375 28.43 92.7375 29.45C92.5575 30.47 92.4675 31.92 92.4675 33.8C92.4675 35.66 92.5575 37.1 92.7375 38.12C92.9375 39.14 93.2475 39.85 93.6675 40.25C94.1075 40.65 94.6775 40.85 95.3775 40.85ZM104.135 41V40.7L104.555 40.58C105.255 40.38 105.605 39.89 105.605 39.11V29.72C105.605 29.28 105.535 28.96 105.395 28.76C105.255 28.54 104.985 28.39 104.585 28.31L104.135 28.19V27.89L109.265 26.15L109.565 26.45L109.805 28.25C110.505 27.63 111.295 27.12 112.175 26.72C113.055 26.32 113.925 26.12 114.785 26.12C116.105 26.12 117.115 26.48 117.815 27.2C118.535 27.92 118.895 29.02 118.895 30.5V39.14C118.895 39.92 119.275 40.41 120.035 40.61L120.305 40.7V41H113.225V40.7L113.615 40.58C114.315 40.36 114.665 39.87 114.665 39.11V29.54C114.665 28.26 114.025 27.62 112.745 27.62C111.865 27.62 110.905 28.06 109.865 28.94V39.14C109.865 39.92 110.215 40.41 110.915 40.61L111.185 40.7V41H104.135ZM128.019 35.81C126.639 35.81 125.469 35.58 124.509 35.12V36.14C124.509 36.76 124.819 37.13 125.439 37.25L131.079 38.3C132.019 38.48 132.869 38.72 133.629 39.02C134.389 39.3 134.999 39.71 135.459 40.25C135.919 40.77 136.149 41.49 136.149 42.41C136.149 43.39 135.829 44.29 135.189 45.11C134.549 45.95 133.599 46.62 132.339 47.12C131.099 47.64 129.549 47.9 127.689 47.9C126.089 47.9 124.819 47.73 123.879 47.39C122.939 47.07 122.269 46.65 121.869 46.13C121.489 45.61 121.299 45.06 121.299 44.48C121.299 43.76 121.539 43.03 122.019 42.29C122.519 41.57 123.129 40.99 123.849 40.55C123.229 40.31 122.779 40 122.499 39.62C122.219 39.24 122.079 38.83 122.079 38.39C122.079 37.99 122.179 37.62 122.379 37.28C122.599 36.92 122.859 36.56 123.159 36.2L124.149 34.94C122.689 34.1 121.959 32.78 121.959 30.98C121.959 29.54 122.469 28.37 123.489 27.47C124.529 26.57 126.049 26.12 128.049 26.12C129.069 26.12 129.959 26.24 130.719 26.48C131.499 26.72 132.139 27.06 132.639 27.5C133.279 27.4 133.879 27.24 134.439 27.02C135.019 26.78 135.539 26.46 135.999 26.06L136.419 26.36V27.89H133.029C133.749 28.69 134.109 29.72 134.109 30.98C134.109 32.38 133.589 33.54 132.549 34.46C131.529 35.36 130.019 35.81 128.019 35.81ZM127.989 35.21C128.789 35.21 129.369 34.88 129.729 34.22C130.109 33.56 130.299 32.46 130.299 30.92C130.299 29.38 130.109 28.3 129.729 27.68C129.369 27.04 128.809 26.72 128.049 26.72C127.309 26.72 126.749 27.05 126.369 27.71C125.989 28.35 125.799 29.44 125.799 30.98C125.799 32.52 125.969 33.61 126.309 34.25C126.669 34.89 127.229 35.21 127.989 35.21ZM123.519 43.52C123.519 44.7 123.879 45.59 124.599 46.19C125.339 46.79 126.499 47.09 128.079 47.09C129.739 47.09 130.989 46.82 131.829 46.28C132.669 45.74 133.089 44.98 133.089 44C133.089 43.44 132.879 42.99 132.459 42.65C132.059 42.31 131.369 42.05 130.389 41.87L124.959 40.85C124.799 40.81 124.639 40.77 124.479 40.73C124.199 41.13 123.969 41.58 123.789 42.08C123.609 42.6 123.519 43.08 123.519 43.52Z" fill="#111111"/>
</svg>
