<?xml version="1.0" encoding="UTF-8"?>
<svg id="Layer_2" data-name="Layer 2" xmlns="http://www.w3.org/2000/svg" viewBox="0 0 477.37 477.37">
  <defs>
    <style>
      .cls-1 {
        fill: none;
      }

      .cls-2 {
        fill: #e0e0e0;
        font-family: Pretendard-ExtraLight-KSCpc-EUC-H, Pretendard;
        font-size: 48px;
        font-weight: 200;
      }
    </style>
  </defs>
  <g id="Layer_1-2" data-name="Layer 1">
    <g>
      <rect class="cls-1" width="477.37" height="477.37"/>
      <text class="cls-2" transform="translate(223.02 61.86) rotate(.93)"><tspan x="0" y="0">w</tspan></text>
      <text class="cls-2" transform="translate(257.22 62.61) rotate(10.18)"><tspan x="0" y="0">e</tspan></text>
      <text class="cls-2" transform="translate(281.72 66.86) rotate(18.51)"><tspan x="0" y="0">b</tspan></text>
      <text class="cls-2" transform="translate(306.79 75.65) rotate(24.51)"><tspan x="0" y="0"> </tspan></text>
      <text class="cls-2" transform="translate(316.29 79.47) rotate(30.49)"><tspan x="0" y="0">d</tspan></text>
      <text class="cls-2" transform="translate(338.91 92.74) rotate(38.75)"><tspan x="0" y="0">e</tspan></text>
      <text class="cls-2" transform="translate(358.37 108.4) rotate(46.25)"><tspan x="0" y="0">s</tspan></text>
      <text class="cls-2" transform="translate(373.36 124.41) rotate(51.24)"><tspan x="0" y="0">i</tspan></text>
      <text class="cls-2" transform="translate(379.31 131.09) rotate(56.88)"><tspan x="0" y="0">g</tspan></text>
      <text class="cls-2" transform="translate(393.37 152.53) rotate(65.06)"><tspan x="0" y="0">n</tspan></text>
      <text class="cls-2" transform="translate(403.65 175.42) rotate(70.83)"><tspan x="0" y="0"> </tspan></text>
      <text class="cls-2" transform="translate(407.16 185.44) rotate(74.3)"><tspan x="0" y="0"> </tspan></text>
      <text class="cls-2" transform="translate(410.37 195.2) rotate(80.21)"><tspan x="0" y="0">g</tspan></text>
      <text class="cls-2" transform="translate(414.49 220.7) rotate(86.69)"><tspan x="0" y="0">r</tspan></text>
      <text class="cls-2" transform="translate(415.63 235.01) rotate(92.79)"><tspan x="0" y="0">a</tspan></text>
      <text class="cls-2" transform="translate(414.64 258.59) rotate(100.73)"><tspan x="0" y="0">p</tspan></text>
      <text class="cls-2" transform="translate(409.95 283.7) rotate(108.95)"><tspan x="0" y="0">h</tspan></text>
      <text class="cls-2" transform="translate(401.42 307.43) rotate(114.53)"><tspan x="0" y="0">i</tspan></text>
      <text class="cls-2" transform="translate(398.07 315.74) rotate(119.91)"><tspan x="0" y="0">c</tspan></text>
      <text class="cls-2" transform="translate(385.78 336.51) rotate(125.48)"><tspan x="0" y="0"> </tspan></text>
      <text class="cls-2" transform="translate(380.22 345.13) rotate(131.42)"><tspan x="0" y="0">d</tspan></text>
      <text class="cls-2" transform="translate(362.88 364.84) rotate(139.66)"><tspan x="0" y="0">e</tspan></text>
      <text class="cls-2" transform="translate(343.81 380.99) rotate(147.17)"><tspan x="0" y="0">s</tspan></text>
      <text class="cls-2" transform="translate(325.26 392.66) rotate(152.19)"><tspan x="0" y="0">i</tspan></text>
      <text class="cls-2" transform="translate(317.6 397.23) rotate(157.87)"><tspan x="0" y="0">g</tspan></text>
      <text class="cls-2" transform="translate(293.88 406.94) rotate(166.1)"><tspan x="0" y="0">n</tspan></text>
      <text class="cls-2" transform="translate(269.41 412.66) rotate(171.86)"><tspan x="0" y="0"> </tspan></text>
      <text class="cls-2" transform="translate(259.52 414.92) rotate(179.07)"><tspan x="0" y="0">w</tspan></text>
      <text class="cls-2" transform="translate(225.42 415.23) rotate(-171.54)"><tspan x="0" y="0">e</tspan></text>
      <text class="cls-2" transform="translate(200.82 411.71) rotate(-163.22)"><tspan x="0" y="0">b</tspan></text>
      <text class="cls-2" transform="translate(175.51 403.69) rotate(-157.22)"><tspan x="0" y="0"> </tspan></text>
      <text class="cls-2" transform="translate(165.89 400.16) rotate(-151.23)"><tspan x="0" y="0">d</tspan></text>
      <text class="cls-2" transform="translate(142.86 387.56) rotate(-142.95)"><tspan x="0" y="0">e</tspan></text>
      <text class="cls-2" transform="translate(122.93 372.48) rotate(-135.45)"><tspan x="0" y="0">s</tspan></text>
      <text class="cls-2" transform="translate(107.48 356.92) rotate(-130.46)"><tspan x="0" y="0">i</tspan></text>
      <text class="cls-2" transform="translate(101.34 350.44) rotate(-124.83)"><tspan x="0" y="0">g</tspan></text>
      <text class="cls-2" transform="translate(86.64 329.4) rotate(-116.65)"><tspan x="0" y="0">n</tspan></text>
      <text class="cls-2" transform="translate(75.68 306.84) rotate(-110.89)"><tspan x="0" y="0"> </tspan></text>
      <text class="cls-2" transform="translate(71.89 296.96) rotate(-107.43)"><tspan x="0" y="0"> </tspan></text>
      <text class="cls-2" transform="translate(68.38 287.31) rotate(-101.52)"><tspan x="0" y="0">g</tspan></text>
      <text class="cls-2" transform="translate(63.48 261.91) rotate(-95.01)"><tspan x="0" y="0">r</tspan></text>
      <text class="cls-2" transform="translate(61.93 247.68) rotate(-88.91)"><tspan x="0" y="0">a</tspan></text>
      <text class="cls-2" transform="translate(62.22 224.05) rotate(-80.99)"><tspan x="0" y="0">p</tspan></text>
      <text class="cls-2" transform="translate(66.16 198.82) rotate(-72.78)"><tspan x="0" y="0">h</tspan></text>
      <text class="cls-2" transform="translate(73.96 174.85) rotate(-67.2)"><tspan x="0" y="0">i</tspan></text>
      <text class="cls-2" transform="translate(77.07 166.41) rotate(-61.8)"><tspan x="0" y="0">c</tspan></text>
      <text class="cls-2" transform="translate(88.72 145.3) rotate(-56.23)"><tspan x="0" y="0"> </tspan></text>
      <text class="cls-2" transform="translate(94.04 136.51) rotate(-50.28)"><tspan x="0" y="0">d</tspan></text>
      <text class="cls-2" transform="translate(110.76 116.32) rotate(-42.05)"><tspan x="0" y="0">e</tspan></text>
      <text class="cls-2" transform="translate(129.35 99.59) rotate(-34.54)"><tspan x="0" y="0">s</tspan></text>
      <text class="cls-2" transform="translate(147.56 87.36) rotate(-29.52)"><tspan x="0" y="0">i</tspan></text>
      <text class="cls-2" transform="translate(155.07 82.57) rotate(-23.85)"><tspan x="0" y="0">g</tspan></text>
      <text class="cls-2" transform="translate(178.51 72.14) rotate(-15.62)"><tspan x="0" y="0">n</tspan></text>
      <text class="cls-2" transform="translate(202.75 65.71) rotate(-9.86)"><tspan x="0" y="0"> </tspan></text>
    </g>
  </g>
</svg>